<?xml version="1.0" encoding="UTF-8"?> <!-- Generator: Adobe Illustrator 21.0.0, SVG Export Plug-In . SVG Version: 6.00 Build 0) --> <svg xmlns="http://www.w3.org/2000/svg" xmlns:xlink="http://www.w3.org/1999/xlink" id="Layer_1" x="0px" y="0px" viewBox="0 0 595.3 156" style="enable-background:new 0 0 595.3 156;" xml:space="preserve"> <style type="text/css"> .st0{fill:#F2F2F2;} </style> <g> <g> <path class="st0" d="M536,36c-3.1,0.6-5.2,1.6-7.5-0.4c-1.1-0.9-3-1.1-4.5-1.4c-0.4-0.1-1.3,0.8-1.3,1.3c-0.4,4.6-0.6,9.3-1,13.9 c-0.1,1.8,0.2,2.5,2.3,2.6c5.2,0.3,10.2,1.2,14.3,5c2.9,2.7,4.1,6.2,4.7,9.8c0.7,5,1.1,10.1,1.4,15.2c0.4,7.6-2.5,14.4-6.2,20.8 c-5,8.8-11.4,16.5-18.1,23.9c-0.2,0.2-0.3,0.5-0.6,0.7c-3.7,3.6-4.9,7.9-5.1,13.1c-0.3,9.2-1.4,18.3-2.2,27.5c-0.1,1-0.3,2-0.4,3 c-0.2,0-0.4,0-0.6,0c0-2.1-0.1-4.2,0-6.3c0.4-10,0.9-19.9,1.2-29.9c0-1-0.7-2.2-1.3-3.1c-2.1-2.8-4.4-5.5-6.7-8.3 c-2.8-3.5-5.8-6.9-8.5-10.5c-5.7-7.5-7.3-16.1-6.1-25.4c0.5-3.5,1.4-6.7,3.9-9.4c1.2-1.4,2.2-1.7,3.7-1c1,0.4,1.9,0.8,2.9,1.3 c-0.1,0.4-0.1,0.7-0.3,0.8c-5.7,6.3-5.7,13.8-3.9,21.3c1.5,6.3,5.4,11.5,9.7,16.4c1.6,1.8,3.2,3.8,4.7,5.7 c0.5,0.6,1.1,1.2,2.1,2.3c0.1-1.3,0.3-1.9,0.3-2.5c0.7-13,1.5-25.9,2.2-38.9c0.4-7.9,0.7-15.8,1.1-23.7c0.1-1.8-0.3-2.6-2.4-1.8 c-2.7,1-5.5,1.8-8.3,2.7c-0.9,0.3-1.7,0.6-2.6,0.8c-4.4,1-5.3,0.3-5.8-4c-0.5-4.3-1.2-8.6-1.6-12.9c-0.2-1.9,0.1-3.9,0.6-5.7 c0.9-3.6,3.4-5.9,6.9-6.7c4.1-1,8.2-2,12.4-2.7c1.8-0.3,2.2-1,2.2-2.6c0-3.3,0.1-6.7,0-10c0-1.5,0.6-1.8,1.9-1.8 c3.6,0,3.9,0.2,3.8,3.9c-0.1,2.6-0.1,5.3-0.3,7.9c-0.2,1.7,0.6,2.2,2.1,2.6c2.6,0.7,5.3,1.4,7.7,2.6C533.9,32.7,534.7,34.3,536,36 z M516.1,122.4c0.2,0.1,0.5,0.2,0.7,0.3c4.7-6.2,9.5-12.4,14.1-18.7c3.5-4.8,6.3-10.1,7.2-15.9c1.3-8.6,0.3-17.1-2.4-25.3 c-0.2-0.6-0.6-1.2-1.1-1.7c-3.2-3.6-7.6-4.2-12-4.1c-0.5,0-1.3,1-1.3,1.6c-0.7,7-1.3,14-1.9,21c-1.1,13.8-2.2,27.6-3.3,41.4 C516.1,121.5,516.1,121.9,516.1,122.4z M516.7,33.8c-4.1,1-8.1,1.9-12.1,3.1c-2.6,0.8-3.5,3.1-3.4,5.5c0.2,3.8,0.6,7.7,1,11.5 c0.2,1.5,0.9,1.9,2.4,1.4c2.3-0.9,4.6-1.8,7-2.3c4.5-1,4.7-0.9,4.9-5.5C516.8,43.2,516.7,38.9,516.7,33.8z"></path> <path class="st0" d="M384.7,63.7c-1.8,4-3.5,7.7-5,11.6c-0.2,0.6,0.3,1.9,0.9,2.3c5,4.1,7.6,9.8,10.1,15.5 c4,9.5,8.5,18.6,15.6,26.3c0.6,0.6,1.1,1.4,1.6,2.1c0.2-0.1,0.5-0.1,0.7-0.2c0-0.8,0-1.5,0-2.3c0.1-6.3-0.1-12.7,0.2-19 c0.2-3.7,1.4-7.2,3.4-10.4c0.6-1,1.3-2.4,2.8-1.1c1.1,0.9,3.1,1.3,1.6,3.7c-2.4,3.7-3.2,8-3.1,12.4c0.1,6.9,0.6,13.8,0.7,20.6 c0.1,2.7-0.2,5.3-0.3,8c-0.2,0.1-0.4,0.2-0.6,0.4c-1.6-1.4-3.3-2.8-4.9-4.3c-8.4-8.1-15.2-17.3-19.8-28.1 c-2.3-5.4-5.1-10.6-8-15.8c-1.1-2-3-3.5-4.6-5.1c-1.8-1.9-2.4-3.9-1.3-6.3c1.5-3.5,2.9-7.1,4.5-10.6c0.9-2,0.8-3.2-0.9-5 c-3.2-3.2-5.9-6.9-8.8-10.4c-0.2-0.3-0.5-0.5-1.1-1.3c-0.2,1.4-0.4,2.2-0.4,3c0.1,14,0.7,28,0.3,42c-0.3,11.6,1.6,23,2.1,34.5 c0.1,1.3,0.6,2.5,1,3.8c0.6,2-0.1,2.7-2.7,3.4c-1.8,0.5-2.2-0.8-2.3-2.1c-0.9-7.7-2.1-15.5-2.4-23.3c-0.7-16.5-1.1-33.1-1.3-49.6 c-0.1-6.4,0.7-12.8,1.3-19.2c0.1-0.9,1.1-2,2-2.6c8.2-5,17.3-6,26.6-5.2c5.6,0.5,11.1,1.7,16.7,2.6c3.3,0.6,4.7,2.4,4.8,5.7 c0.2,7.2,0.4,14.4,0.5,21.6c0,3.6-0.1,7.2-2.4,10.4c-0.6,0.8-0.7,2-0.9,3.1c-0.5,2.4-0.9,2.7-3.3,1.9c-6.8-2.3-12.8-5.9-18.6-10.1 C387.7,65.9,386.3,64.9,384.7,63.7z M370,40.3c0.3,0.6,0.5,1,0.7,1.3c5.7,7.4,11.3,14.8,19.4,19.8c5,3,9.9,6.1,15,9.1 c0.5,0.3,1.9,0.2,2,0c0.8-2,2-4.1,2-6.2c0.1-6.9-0.2-13.9-0.4-20.8c-0.1-3.9-0.5-4.4-4.4-4.9c-3.7-0.5-7.5-1.1-11.2-1.6 C385.3,35.9,377.7,37.1,370,40.3z"></path> <path class="st0" d="M194.3,63.7c-0.7,1.7-1.4,3.2-2.2,4.8c-0.9,2-1.8,3.9-2.7,5.9c-0.6,1.2-0.6,2.4,0.6,3.3 c3.9,2.8,6,6.9,8.1,11.1c3.1,6.4,5.8,13.1,9.3,19.3c2.8,4.9,6.5,9.2,9.8,13.8c0.3-0.1,0.5-0.2,0.8-0.3c0-0.7,0.1-1.4,0.1-2.1 c0-5.7-0.1-11.4,0-17.2c0-4.6,1.5-8.8,3.8-12.7c0.6-1,1.3-2.3,2.6-1c0.9,0.9,3.4,1,1.8,3.5c-3.1,4.7-3.3,10.2-3.2,15.6 c0.2,7.2,0.4,14.4,0.6,21.6c0,1.3-0.3,2.7-0.5,4.8c-3-2.8-5.5-5-7.8-7.4c-8.6-8.7-14.8-18.8-19.3-30.1c-2.4-6-5.3-12-10.6-16.3 c-2.1-1.7-2.3-4.1-1.2-6.6c1.6-3.9,3.4-7.8,4.9-11.7c0.3-0.7,0.1-2-0.4-2.6c-3-3.7-6.2-7.2-9.4-10.8c-0.4-0.5-0.9-0.9-1.3-1.3 c-0.3,0.1-0.5,0.1-0.8,0.2c0,1.6,0,3.2,0,4.7c0.1,17,0.1,34.1,0.5,51.1c0.2,8.2,1.5,16.3,2.3,24.4c0.1,0.8,0.3,1.5,0.6,2.2 c0.7,1.5,0.5,2.3-1.3,2.9c-2.9,0.9-3.1,1.1-3.6-2c-0.9-4.9-2-9.9-2.1-14.9c-0.7-19.1-1.1-38.2-1.5-57.3c-0.1-4.9,0.5-9.9,0.4-14.8 c-0.1-5.2,2.9-7.5,7.3-9.2c8.7-3.3,17.6-3.7,26.7-2.5c4.2,0.6,8.4,1.4,12.5,2.2c2.6,0.5,4.2,2.3,4.3,5c0.2,8.7,0.4,17.5,0.4,26.2 c0,1.5-0.8,3.1-1.3,4.6c-0.6,1.7-1.4,3.3-1.8,5c-0.6,2.2-1,2.6-3.2,1.8c-6.7-2.2-12.6-5.8-18.2-9.8 C197.7,66.1,196.1,65,194.3,63.7z M179.6,40.5c2.1,2.7,4.1,5.3,6,7.8c3.8,4.8,8.2,9,13.4,12.3c5.2,3.3,10.4,6.5,15.7,9.7 c0.9,0.6,2,1,2.4-0.5c0.8-3,1.8-6.1,1.9-9.1c0.1-5.1-0.4-10.2-0.7-15.3c-0.3-6-0.3-6.1-6.2-7.1c-7.3-1.3-14.7-2.6-22.1-1.2 C186.5,37.8,182.9,38.3,179.6,40.5z"></path> <path class="st0" d="M94.7,61.7c-3,0.7-5.7,1.5-8.5,2c-4.1,0.8-8.4,1-12.3,2.3c-3.7,1.3-7.1,3.6-10.5,5.5c-1.5,0.9-2.9,2-4.4,2.9 c-1.3,0.7-1.7,1.4-1.1,2.8c0.9,2.2,1.8,4.4,2.5,6.7c0.2,0.7-0.1,2.2-0.6,2.3c-1.2,0.4-2.7,2.1-3.8-0.3c-3.8-7.7-4.9-15.8-3.6-24.3 c1-6,1.8-12.1,2.6-18.1c0.2-1.3,0.3-2.6,0.4-3.9c-0.2-0.1-0.4-0.1-0.6-0.2c-0.4,0.6-0.8,1.4-1.3,1.9c-0.6,0.4-1.5,0.5-2,0.7 c-0.5-1.4-0.9-2.5-1.1-3.6c-0.1-0.5,0.2-1.1,0.4-1.7c2.8-6.2,8-9.4,14.5-10.1c6.7-0.7,13.4-0.8,20.1-1.1c0.6,0,1.7,1,1.7,1.5 c-0.4,5,1.5,9.4,3,13.9c0.1,0.2,0.2,0.4,0.3,0.6c1,3.5,0.9,3.5-2.4,5c-4.4,1.9-9.1,3.5-13.2,6c-6.7,4-12.3,9.4-16.2,16.5 c0.8-0.5,1.7-0.9,2.4-1.5c5.5-5.3,12.5-6.5,19.6-7.7c4.9-0.8,9.6-2.6,14.4-3.9c1-0.3,2.4-1,3-0.5c1.5,0.9,2.4,2.4,2.1,4.5 c-0.6,3.6-1.2,7.2-1.4,10.8c-0.2,3-0.3,6.1,0.3,9c2.1,9.9,0.2,19-5.1,27.5c-4.9,8-10.1,15.9-15,23.8c-0.8,1.3-1.2,2.8-2.1,4.1 c-0.5,0.7-1.4,1.5-2.2,1.5c-3,0.2-3.1-0.2-2.4-3.2c0.3-1,0.3-2.4-0.2-3.2c-3.2-5.1-6.5-10.2-10-15.1c-2.6-3.8-5.7-7.3-8.4-11 c-2.1-2.9-1.5-6.4-1.3-9.7c0-0.4,1.7-1.1,2.5-1c0.8,0.1,2.3,1.2,2.2,1.6c-1.1,5.5,2.3,8.9,5.3,12.7c4.4,5.5,8.4,11.3,12.6,17 c0.3,0.5,0.8,0.9,1.4,1.5c2.2-3.4,4.4-6.4,6.3-9.6c3.3-5.5,6.6-11,9.5-16.7c2.7-5.3,3.7-11,2.4-17.1c-1.4-6.1-1.3-12.3-0.1-18.4 C94.6,63.6,94.6,62.7,94.7,61.7z M58,59.6c5-3.9,10-8.2,15.4-11.9c2.8-1.9,6.3-2.9,9.5-4.2c1.6-0.7,2.6-1.2,1.8-3.4 c-1.1-2.7-1.7-5.6-2.3-8.4c-0.3-1.2-0.7-1.8-2-1.6c-5.7,0.6-11.3,1.2-17,1.8c-1.9,0.2-2.4,1.3-2.5,3c-0.1,2.9-0.4,5.7-0.7,8.5 C59.4,48.9,58.7,54.5,58,59.6z"></path> <path class="st0" d="M329.7,54.4c-8,0.3-15.2,2.4-20.2,9c-0.5,0.7-0.9,1.6-1.2,2.4c-1,3.2-4.2,5.2-7.6,4.7c-1.4-0.2-1.2-1-1-2 c1.1-3.7,2.5-7.3,3.1-11.1c0.6-4.3,0.4-8.7,0.5-13.1c0-0.5-0.2-1.1-0.4-1.6c-1.2-2.9,0.2-5,3.2-5.7c4.6-1.2,9.1-2.8,13.6-4.3 c6.5-2.1,13.1-3.7,20-2.7c4.7,0.7,8.7,3.1,12.9,5.1c-2.3,3.8-3.7,4.3-7.1,2.4c-5.4-3-11.1-3.8-17-2.1c-6.2,1.8-12.4,3.8-18.5,5.8 c-0.5,0.2-1.2,1.1-1.2,1.7c0,3.4,0.2,6.7,0.4,10.1c0,0.7,0,1.5,0,2.6c2.2-1.2,3.9-2.1,5.6-3c5.2-2.8,11.1-3.2,16.8-4 c2.7-0.4,5.5-0.5,8.3-0.6c0.9,0,2.6,0.6,2.5,0.7c-0.2,1.3-0.3,3.4-1.1,3.9c-7.8,4-13.2,10.8-19,16.9c-3.7,4-7.6,7.9-10.8,12.3 c-2.3,3.3-3.6,7.5-5.2,11.3c-0.2,0.6,0.2,1.9,0.8,2.4c3.6,3.2,5.9,7.2,8.5,11.2c3.6,5.7,7.7,11.1,11.9,17.1c1.4-2,2.4-3.6,3.5-5.1 c2.9-3.7,5.9-7.3,8.7-11c4.2-5.7,8-11.5,8.3-18.9c0.2-4.2-1.1-6.2-5.3-6.5c-2.7-0.2-1.8-1.9-1.9-3.3c-0.1-1.8,1.2-1.6,2.4-1.5 c3.7,0.4,7.3,1.2,9.5,4.5c0.8,1.2,1.4,2.8,1.4,4.2c0.3,6.9-2,13.1-5.8,18.7c-3.5,5.1-7.5,9.8-11.2,14.7c-2.5,3.3-4.6,6.7-4.7,11.1 c0,0.6-0.7,1.4-1.2,1.6c-1.1,0.5-2.4,1.1-3.5,0.9c-0.8-0.2-1.2-1.7-1.9-2.5c-3.6-4.7-7.3-9.3-10.8-14.1c-2.9-4-5.2-8.4-8.2-12.3 c-1.8-2.4-4.3-4.3-6.4-6.5c-0.6-0.6-1.1-1.8-0.9-2.5c2.6-9.1,6.5-17.6,13.6-24.3c4.1-3.9,7.8-8.1,11.7-12.2 C326.6,57.2,328.2,55.8,329.7,54.4z"></path> <path class="st0" d="M157.6,110.8c-0.1-1.1-0.2-2-0.3-3c-0.6-5.3-1.5-10.6-1.7-15.9c-0.4-11.6-2.3-22.8-5.8-33.9 c-1.7-5.5-2.1-11,0-16.6c1.9-5,1-6.3-4.4-6.1c-5.9,0.2-11.9,0.6-17.6,2.5c-5.2,1.7-11.5-0.2-14.7-4.2c2-3.1,2-3.1,5.1-1.6 c2.9,1.4,5.8,1.7,9,0.7c6-1.8,12.3-2.3,18.5-2.4c0.2,0,0.3,0,0.5,0c8.4,0.9,10.5,5.2,8,12.4c-1.6,4.7-1.4,9-0.2,13.6 c1.7,6.8,3.6,13.6,4.7,20.5c1.1,7.6,1.3,15.2,1.9,22.9c0.2,2.8,0.6,5.5,1,8.2c0.7,4.6,1.4,9.1,2.1,13.7c0.1,0.4,0,1-0.2,1.3 c-1.4,2.3-2.7,4.7-4.2,6.9c-2,3-5.2,4-8.5,3.4c-9.5-1.6-19-3.4-28.4-5.1c-2.2-0.4-3.5-1.7-3.7-4c-0.9-9.5-1.5-19-2.8-28.4 c-1.1-8.2-2.6-16.3-4.2-24.4c-0.5-2.8-2-5.3-2.8-8c-0.8-2.9,0.2-4.1,3.2-3.4c5,1.1,9.5,3.3,12.7,7.4c3.8,5,7.6,10.1,11,15.4 c2.1,3.3,3.6,7,5.2,10.5c3.2,7,8.5,12.2,14.5,16.8c0.4,0.3,0.8,0.5,1.2,0.8C156.8,110.9,157,110.8,157.6,110.8z M114.3,66 c0.7,1.7,1.3,2.7,1.6,3.9c1,4.3,1.9,8.5,2.6,12.9c1,6.2,2,12.3,2.6,18.6c0.7,6.2,1,12.5,1.5,18.7c0.3,3.7,0.4,3.5,3.9,4 c7,1.1,13.9,2.5,20.9,3.8c4.9,0.9,6.9,1.2,9.1-2.5c0.8-1.3,1.5-2.7,2.2-4.1c0.7-1.5,0-4.4-1-4.7c-5.6-1.9-9.5-6.2-13.2-10.2 c-3.8-4.2-6.8-9.5-9.3-14.7c-3.8-8-8.7-15.2-14.5-21.8C119.2,68.1,117.2,66.7,114.3,66z"></path> <path class="st0" d="M237.3,43.3c-2.3-4.1-2-5.4,1.5-8.4c1.3-1.1,3.3-1.8,3.2-4.1c0-0.3,0.9-0.8,1.4-0.8c4-0.1,8-0.1,12-0.1 c6.2,0,11.6,2.7,17,5.4c3.9,2,7.8,4,11.7,6c3.2,1.6,4.1,4.4,4.3,7.7c0.7,8.9,1.3,17.7,2.1,26.6c0.5,5.6-0.4,11.1-2,16.4 c-1.8,6.2-3.7,12.4-7.7,17.6c-2.5,3.2-5.4,6.1-8.2,9c-3,3.2-5.5,6.7-5.4,11.4c0,0.9-0.4,2.5-0.7,2.5c-1.6,0.2-3.3,0.8-4.7-0.9 c-2.3-3-4.4-6.3-7.1-8.7c-2.9-2.6-6.5-4.4-9.8-6.3c-5.8-3.4-10.8-9.9-9.4-17.6c0.6-3.3,1.2-6.6,1.8-9.9c4.3,0.9,4.7,1.6,3.9,5 c-0.6,2.2-1,4.4-1.2,6.6c-0.5,5.4,2.6,8.9,6.8,11.2c5.8,3.2,11.4,6.3,15.4,11.9c0.2,0.3,0.6,0.4,1.2,0.9c1.4-5.9,5.7-9.4,9.6-13.3 c5.3-5.4,8.1-12.2,10.6-19.2c3-8.4,2.3-16.9,1.7-25.4c-0.4-6.2-1.1-12.5-1.8-18.7c-0.1-0.8-0.7-1.8-1.4-2.1 c-5.7-3-11.4-6.2-17.3-8.7c-3.2-1.4-7-1.6-10.5-2.3c-0.3-0.1-0.8,0.4-1.4,0.7c2.9,3.1,4.3,6.8,3.7,10.8c-0.5,2.9-1.6,5.7-2.6,8.6 c-1.8,5.4-4.2,10.6-5.4,16.2c-1.8,8.7,1.4,15.8,8.9,20.8c1.2,0.8,2.3,1.6,3.4,2.4c1,0.8,1.8,3.9,1.1,4.9c-0.3,0.4-1.3,0.6-1.7,0.3 c-9.9-5.5-18.8-14.8-16.3-29.3c1.2-6.7,3.8-12.8,6.4-19c1.2-2.8,2.5-5.7,1.2-8.7c-0.9-2.1-2.4-4-4-5.8c-0.4-0.5-2.3-0.2-3,0.3 c-1.8,1.3-3.4,2.9-5.1,4.3C238.9,42.1,238.2,42.6,237.3,43.3z"></path> <path class="st0" d="M476.3,124.3c-0.6-4.7-1.2-9.4-1.9-14.8c-2.1,2.6-3.8,4.8-5.5,7c-3.6,4.9-7.2,9.7-10.8,14.6 c-1.5,2.1-3.8,1.7-5.9,2.1c-0.3,0.1-0.9-0.5-1.1-0.9c-3.8-8.2-9.1-15.3-14.9-22.2c-0.5-0.6-1.2-0.9-2.2-1.6 c-0.4,5.3-0.8,10-1.2,14.7c-0.2,0-0.4,0-0.6,0c-0.2-2.4-0.5-4.8-0.7-7.2c-0.2-3.1-0.3-6.2-0.5-9.3c-0.1-0.7-0.5-1.4-1-1.9 c-0.9-1-2-1.8-2.8-2.8c-0.4-0.5-0.8-1.4-0.5-1.8c0.3-0.4,1.2-0.6,1.8-0.6c0.7-0.1,1.5,0,2.5,0c0.1-0.9,0.2-1.6,0.2-2.4 c-0.1-19.5-0.1-39-0.2-58.5c0-1.6,0.6-2.7,2-3.6c6.4-4,13.2-6.5,20.7-7.2c5.6-0.5,10.4,1.3,14.6,4.6c3.2,2.6,6.5,5.3,8,9.3 c0.6,1.7,1.2,3.6,1.2,5.3c0.1,16.7,0,33.4,0.1,50.2c0,1.2,0.8,2.6,1.6,3.6c1.9,2.3,1.9,2.4-0.3,4.4c-0.7,0.6-1.2,1.9-1.2,3 c-0.3,4.9-0.4,9.7-0.5,14.6c0,0.4-0.2,0.8-0.2,1.2C476.7,124.3,476.5,124.3,476.3,124.3z M454.9,126.4c0.9-1.1,2-2.3,2.9-3.6 c4.8-6.7,9.1-13.8,15.3-19.4c0.6-0.5,1-1.6,1-2.4c-0.1-5.7-0.3-11.4-0.5-17.2c-0.5-11.4-1.2-22.9-1.6-34.3 c-0.1-3.3-0.6-6.3-2.8-8.8c-4-4.5-8.4-8.4-15.2-7.8c-6,0.5-11.4,2.4-16.5,5.6c-0.5,0.3-0.8,1.1-0.8,1.7 c-0.8,19.4-1.5,38.8-2.4,58.2c-0.1,2.2,0.4,3.7,2.4,5c1.7,1.1,3.3,2.6,4.5,4.3C445.8,113.8,450.2,119.9,454.9,126.4z"></path> <path class="st0" d="M438.3,64c5-1.9,5.3-1.8,7.8,2.2c2.1,3.3,4.4,6.5,6.6,9.8c0.3,0.4,0.4,0.8,0.6,1.2c0.3-0.1,0.6-0.3,0.8-0.4 c0-0.9,0-1.7,0-2.6c-0.2-5.6-0.6-11.1-0.6-16.7c0-2.8,0.8-3.1,4.5-2.4c2.4,0.4,1.1,2,1,3.2c-0.5,5.7-1.1,11.4-1.6,17.1 c0,0.3,0.2,0.5,0.5,1.3c2.2-2.8,3.4-5.7,4.4-8.7c0.7-2.3,1.5-4.5,2.3-6.7c0.2-0.4,0.9-0.7,1.5-0.8c0.9,0,1.9,0,2.7,0.4 c0.5,0.2,1.1,1.3,1,1.7c-2.7,6.4-5.7,12.6-10.9,17.4c-1.1,1-1,1.6-0.1,2.6c1.6,1.8,3.1,3.8,4.7,5.7c-0.1,0.1-0.3,0.3-0.4,0.4 c-1.9-1.6-3.8-3.3-6.1-5.3c0,4.6,0,8.5,0,12.3c-0.1,0-0.2,0.1-0.3,0.1c-0.4-1.8-1-3.6-1.3-5.4c-0.3-1.8-0.3-3.7-0.5-6.1 c-3.5,2.9-6.7,5.4-9.8,8c-0.1-0.1-0.2-0.2-0.4-0.3c3.3-3.5,6.6-7.1,10-10.8C448,76.3,443.4,70.1,438.3,64z"></path> </g> </g> </svg> 